<?xml version="1.0" encoding="utf-8"?>
<!-- Generator: Adobe Illustrator 16.0.4, SVG Export Plug-In . SVG Version: 6.00 Build 0)  -->
<!DOCTYPE svg [
	<!ENTITY ns_flows "http://ns.adobe.com/Flows/1.0/">
	<!ENTITY ns_extend "http://ns.adobe.com/Extensibility/1.0/">
	<!ENTITY ns_ai "http://ns.adobe.com/AdobeIllustrator/10.0/">
	<!ENTITY ns_graphs "http://ns.adobe.com/Graphs/1.0/">
]>
<svg version="1.2" baseProfile="tiny" id="Layer_1" xmlns:x="&ns_extend;" xmlns:i="&ns_ai;" xmlns:graph="&ns_graphs;"
	 xmlns="http://www.w3.org/2000/svg" xmlns:xlink="http://www.w3.org/1999/xlink" xmlns:a="http://ns.adobe.com/AdobeSVGViewerExtensions/3.0/"
	 x="0px" y="0px" width="102px" height="102px" viewBox="0 0 102 102" xml:space="preserve">
<g>
	<g>
		<path fill="#ED1E79" d="M51,102C22.878,102,0,79.121,0,50.999C0,22.878,22.878,0,51,0s51,22.878,51,50.999
			C102,79.121,79.122,102,51,102z"/>
	</g>
	<g id="heart">
		<g>
			<path fill="#FFFFFF" d="M50.997,85.918l-4.95-5.085l0,0c0.001,0.002-19.752-19.547-21.865-21.643
				c-3.775-3.739-5.854-8.709-5.852-13.996c0.002-5.281,2.081-10.245,5.853-13.976c2.697-2.673,6.074-4.029,10.037-4.029
				c5.366,0,11.58,2.625,16.776,7.058c5.194-4.433,11.409-7.058,16.777-7.058c3.964,0,7.341,1.356,10.038,4.03
				c3.771,3.73,5.851,8.694,5.852,13.975c0.002,5.286-2.076,10.256-5.852,13.997c-0.264,0.257-21.659,21.441-21.876,21.655
				L50.997,85.918z"/>
		</g>
	</g>
</g>
<g>
</g>
<g>
</g>
<g>
</g>
<g>
</g>
<g>
</g>
<g>
</g>
<g>
</g>
<g>
</g>
<g>
</g>
<g>
</g>
<g>
</g>
<g>
</g>
<g>
</g>
<g>
</g>
<g>
</g>
</svg>
