<?xml version="1.0" encoding="utf-8"?>
<!-- Generator: Adobe Illustrator 16.0.4, SVG Export Plug-In . SVG Version: 6.00 Build 0)  -->
<!DOCTYPE svg [
	<!ENTITY ns_flows "http://ns.adobe.com/Flows/1.0/">
	<!ENTITY ns_extend "http://ns.adobe.com/Extensibility/1.0/">
	<!ENTITY ns_ai "http://ns.adobe.com/AdobeIllustrator/10.0/">
	<!ENTITY ns_graphs "http://ns.adobe.com/Graphs/1.0/">
]>
<svg version="1.2" baseProfile="tiny" id="Layer_1" xmlns:x="&ns_extend;" xmlns:i="&ns_ai;" xmlns:graph="&ns_graphs;"
	 xmlns="http://www.w3.org/2000/svg" xmlns:xlink="http://www.w3.org/1999/xlink" xmlns:a="http://ns.adobe.com/AdobeSVGViewerExtensions/3.0/"
	 x="0px" y="0px" width="37.595px" height="39.389px" viewBox="0 0 37.595 39.389" xml:space="preserve">
<g>
	<g>
		<g>
			<g>
				<path d="M18.799,39.389c-0.357,0-0.664-0.151-0.882-0.438l-3.71-5.115L8.192,35.77c-0.092,0.041-0.223,0.069-0.355,0.069
					c-0.209,0-0.418-0.068-0.618-0.202c-0.306-0.237-0.456-0.54-0.456-0.893V28.44l-6.018-1.979
					c-0.346-0.102-0.596-0.354-0.691-0.701c-0.133-0.461,0.01-0.785,0.153-0.977l3.704-5.104l-3.709-5.105
					c-0.203-0.297-0.252-0.632-0.146-0.979c0.093-0.337,0.334-0.582,0.693-0.695l6.012-1.975V4.622c0-0.348,0.15-0.649,0.43-0.875
					C7.571,3.497,7.9,3.471,8.223,3.605l5.984,1.926l3.705-5.107C18.059,0.228,18.329,0,18.799,0c0.369,0,0.674,0.144,0.881,0.418
					l3.711,5.113l6.018-1.937c0.086-0.041,0.215-0.066,0.347-0.066c0.208,0,0.415,0.066,0.614,0.198
					c0.312,0.243,0.463,0.546,0.463,0.896v6.304l6.016,1.976c0.355,0.112,0.598,0.357,0.691,0.706
					c0.105,0.334,0.058,0.67-0.141,0.958l-3.713,5.116l3.707,5.109c0.14,0.185,0.283,0.511,0.146,0.975
					c-0.09,0.341-0.34,0.593-0.701,0.7l-6.006,1.975v6.304c0,0.358-0.152,0.661-0.443,0.88c-0.211,0.146-0.42,0.215-0.631,0.215l0,0
					c-0.125,0-0.248-0.025-0.367-0.074l-5.996-1.93l-3.711,5.105C19.459,39.237,19.155,39.389,18.799,39.389z M14.516,32.894
					l4.044,5.578c0.12,0.157,0.349,0.166,0.481-0.01l4.045-5.568l6.606,2.129c0.022,0.01,0.044,0.015,0.065,0.015l0,0
					c0.059,0,0.121-0.036,0.164-0.064c0.074-0.056,0.109-0.125,0.109-0.229V27.86l6.566-2.159c0.119-0.035,0.152-0.083,0.17-0.149
					c0.053-0.188,0.004-0.255-0.02-0.285l-4.053-5.584l4.049-5.578c0.043-0.064,0.068-0.139,0.027-0.271
					c-0.023-0.084-0.057-0.132-0.17-0.167l-6.57-2.159V4.622c0-0.072-0.016-0.157-0.129-0.246c-0.027-0.016-0.129-0.069-0.215-0.033
					l-6.605,2.129l-4.047-5.578C19,0.849,18.944,0.801,18.799,0.801c-0.148,0-0.205,0.047-0.243,0.099l-4.04,5.572l-6.57-2.116
					C7.887,4.334,7.864,4.329,7.839,4.329c-0.052,0-0.111,0.022-0.179,0.067C7.6,4.446,7.563,4.52,7.563,4.622v6.884l-6.568,2.158
					c-0.116,0.037-0.149,0.085-0.17,0.156c-0.043,0.145-0.02,0.22,0.031,0.292l4.045,5.567L0.85,25.261
					c-0.026,0.036-0.077,0.104-0.025,0.282c0.021,0.075,0.053,0.123,0.16,0.155l6.579,2.162v6.884c0,0.103,0.036,0.175,0.122,0.243
					c0.064,0.041,0.145,0.066,0.225,0.033L14.516,32.894z M18.799,32.493c-1.73,0-3.404-0.34-4.977-1.012s-2.947-1.594-4.088-2.736
					c-1.148-1.148-2.068-2.523-2.736-4.09c-0.671-1.572-1.012-3.247-1.012-4.976c0-1.726,0.341-3.399,1.012-4.972
					c0.668-1.562,1.587-2.938,2.736-4.089c1.15-1.147,2.525-2.067,4.088-2.733c1.578-0.673,3.252-1.014,4.977-1.014
					c1.727,0,3.4,0.341,4.971,1.014c1.566,0.667,2.939,1.586,4.084,2.733c1.15,1.146,2.073,2.522,2.74,4.089
					c0.671,1.568,1.013,3.241,1.013,4.972c0,1.726-0.342,3.399-1.013,4.976c-0.668,1.57-1.592,2.947-2.74,4.09
					c-1.135,1.143-2.51,2.064-4.084,2.736C22.204,32.153,20.531,32.493,18.799,32.493z M18.799,7.673
					c-1.616,0-3.184,0.32-4.662,0.95c-1.469,0.626-2.76,1.488-3.836,2.563c-1.076,1.078-1.939,2.368-2.565,3.836
					c-0.628,1.473-0.946,3.04-0.946,4.657c0,1.62,0.318,3.188,0.946,4.661c0.628,1.472,1.49,2.762,2.565,3.838
					c1.068,1.07,2.36,1.935,3.838,2.566c1.471,0.629,3.039,0.947,4.66,0.947c1.623,0,3.19-0.318,4.654-0.947
					c1.48-0.633,2.771-1.496,3.834-2.566c1.078-1.071,1.942-2.362,2.57-3.837c0.627-1.477,0.947-3.046,0.947-4.662
					c0-1.622-0.32-3.188-0.947-4.656c-0.628-1.473-1.492-2.763-2.568-3.837c-1.074-1.075-2.363-1.937-3.834-2.563
					C21.985,7.992,20.417,7.673,18.799,7.673z"/>
			</g>
		</g>
	</g>
	<g>
		<path d="M17.86,24.132c0.09,0.07,0.195,0.105,0.301,0.105c0.132,0,0.264-0.055,0.357-0.161l7.66-8.617
			c0.176-0.197,0.158-0.5-0.039-0.676c-0.199-0.176-0.502-0.158-0.676,0.04l-7.359,8.278l-4.432-3.547
			c-0.207-0.165-0.508-0.13-0.674,0.075c-0.164,0.207-0.131,0.508,0.074,0.673L17.86,24.132z"/>
	</g>
</g>
<g>
</g>
<g>
</g>
<g>
</g>
<g>
</g>
<g>
</g>
<g>
</g>
<g>
</g>
<g>
</g>
<g>
</g>
<g>
</g>
<g>
</g>
<g>
</g>
<g>
</g>
<g>
</g>
<g>
</g>
</svg>
