<?xml version="1.0" encoding="utf-8"?>
<!-- Generator: Adobe Illustrator 16.0.4, SVG Export Plug-In . SVG Version: 6.00 Build 0)  -->
<!DOCTYPE svg [
	<!ENTITY ns_flows "http://ns.adobe.com/Flows/1.0/">
	<!ENTITY ns_extend "http://ns.adobe.com/Extensibility/1.0/">
	<!ENTITY ns_ai "http://ns.adobe.com/AdobeIllustrator/10.0/">
	<!ENTITY ns_graphs "http://ns.adobe.com/Graphs/1.0/">
]>
<svg version="1.2" baseProfile="tiny" id="Layer_1" xmlns:x="&ns_extend;" xmlns:i="&ns_ai;" xmlns:graph="&ns_graphs;"
	 xmlns="http://www.w3.org/2000/svg" xmlns:xlink="http://www.w3.org/1999/xlink" xmlns:a="http://ns.adobe.com/AdobeSVGViewerExtensions/3.0/"
	 x="0px" y="0px" width="102px" height="102px" viewBox="0 0 102 102" xml:space="preserve">
<g>
	<g>
		<path d="M55.698,102h-9.395c-3.086,0-5.598-2.511-5.598-5.598v-3.474c-4.269-1.041-8.323-2.72-12.074-4.999l-2.453,2.453
			c-1.059,1.059-2.464,1.641-3.957,1.641c-1.498,0-2.905-0.583-3.961-1.642l-6.643-6.642c-1.057-1.055-1.64-2.46-1.64-3.957
			c0-1.499,0.583-2.906,1.64-3.962l2.449-2.452c-2.279-3.759-3.957-7.813-4.997-12.074H5.6c-3.087,0-5.6-2.511-5.6-5.598v-9.395
			c0-3.087,2.512-5.598,5.6-5.598H9.07c1.04-4.263,2.718-8.317,4.997-12.075l-2.45-2.454c-2.18-2.183-2.18-5.734,0-7.917
			l6.644-6.642c1.056-1.059,2.462-1.642,3.96-1.642c1.492,0,2.897,0.583,3.957,1.641l2.454,2.454c3.751-2.279,7.806-3.958,12.074-5
			V5.598C40.705,2.511,43.216,0,46.303,0h9.395c3.088,0,5.6,2.511,5.6,5.598V9.07c4.269,1.042,8.323,2.721,12.074,5l2.453-2.453
			c1.053-1.058,2.459-1.642,3.957-1.642s2.904,0.583,3.96,1.643l6.644,6.64c2.181,2.184,2.181,5.735,0.001,7.918l-2.454,2.454
			c2.276,3.753,3.956,7.808,4.999,12.075h3.468c3.089,0,5.602,2.512,5.602,5.6v9.393c0,3.087-2.513,5.598-5.602,5.598h-3.468
			c-1.043,4.268-2.723,8.322-4.999,12.074l2.453,2.453c1.057,1.06,1.639,2.466,1.639,3.961c0,1.492-0.581,2.897-1.638,3.957
			l-6.642,6.643c-1.061,1.059-2.466,1.641-3.959,1.641c-1.501,0-2.908-0.583-3.963-1.643l-2.451-2.451
			c-3.751,2.279-7.806,3.958-12.074,4.999v3.474C61.297,99.489,58.786,102,55.698,102z M28.343,85.389l0.676,0.429
			c3.971,2.515,8.313,4.312,12.904,5.343l0.781,0.175v5.067c0,1.983,1.614,3.598,3.598,3.598h9.395c1.984,0,3.6-1.614,3.6-3.598
			v-5.067l0.781-0.175c4.592-1.03,8.934-2.828,12.904-5.343l0.677-0.429l3.579,3.58c1.352,1.357,3.723,1.364,5.093-0.001l6.64-6.641
			c0.679-0.681,1.053-1.585,1.053-2.544c0-0.962-0.374-1.866-1.054-2.548l-3.578-3.578l0.428-0.676
			c2.512-3.973,4.311-8.315,5.344-12.906l0.176-0.78h5.06c1.986,0,3.602-1.614,3.602-3.598v-9.393c0-1.985-1.615-3.6-3.602-3.6
			h-5.06l-0.176-0.78c-1.033-4.592-2.832-8.934-5.344-12.907l-0.428-0.676l3.579-3.579c1.401-1.403,1.401-3.688-0.001-5.091
			l-6.644-6.641c-1.356-1.361-3.733-1.361-5.086-0.002L73.66,16.61l-0.677-0.428c-3.971-2.516-8.312-4.312-12.904-5.344
			l-0.781-0.175V5.598c0-1.984-1.615-3.598-3.6-3.598h-9.395c-1.984,0-3.598,1.613-3.598,3.598v5.066l-0.781,0.175
			c-4.592,1.031-8.934,2.828-12.904,5.344l-0.676,0.428l-3.58-3.579c-1.365-1.364-3.735-1.357-5.088-0.001l-6.645,6.643
			c-1.401,1.403-1.401,3.687,0,5.09l3.574,3.579l-0.427,0.676c-2.515,3.979-4.312,8.322-5.34,12.906l-0.175,0.781H5.6
			c-1.985,0-3.6,1.613-3.6,3.598v9.395c0,1.983,1.615,3.598,3.6,3.598h5.064l0.175,0.781c1.028,4.583,2.825,8.925,5.34,12.905
			l0.427,0.676l-3.575,3.579c-0.68,0.679-1.054,1.583-1.054,2.547c0,0.962,0.374,1.864,1.053,2.542l6.644,6.644
			c1.355,1.358,3.725,1.362,5.089,0L28.343,85.389z"/>
	</g>
	<g>
		<g>
			<path d="M51,80.757c-16.409,0-29.758-13.349-29.758-29.757S34.591,21.242,51,21.242S80.758,34.592,80.758,51
				S67.409,80.757,51,80.757z M51,23.242c-15.306,0-27.758,12.452-27.758,27.758c0,15.305,12.452,27.757,27.758,27.757
				c15.306,0,27.758-12.452,27.758-27.757C78.758,35.694,66.306,23.242,51,23.242z"/>
		</g>
	</g>
</g>
<g>
</g>
<g>
</g>
<g>
</g>
<g>
</g>
<g>
</g>
<g>
</g>
<g>
</g>
<g>
</g>
<g>
</g>
<g>
</g>
<g>
</g>
<g>
</g>
<g>
</g>
<g>
</g>
<g>
</g>
</svg>
