<?xml version="1.0" encoding="utf-8"?>
<!-- Generator: Adobe Illustrator 16.0.4, SVG Export Plug-In . SVG Version: 6.00 Build 0)  -->
<!DOCTYPE svg [
	<!ENTITY ns_flows "http://ns.adobe.com/Flows/1.0/">
	<!ENTITY ns_extend "http://ns.adobe.com/Extensibility/1.0/">
	<!ENTITY ns_ai "http://ns.adobe.com/AdobeIllustrator/10.0/">
	<!ENTITY ns_graphs "http://ns.adobe.com/Graphs/1.0/">
]>
<svg version="1.2" baseProfile="tiny" id="Layer_1" xmlns:x="&ns_extend;" xmlns:i="&ns_ai;" xmlns:graph="&ns_graphs;"
	 xmlns="http://www.w3.org/2000/svg" xmlns:xlink="http://www.w3.org/1999/xlink" xmlns:a="http://ns.adobe.com/AdobeSVGViewerExtensions/3.0/"
	 x="0px" y="0px" width="56.259px" height="50.15px" viewBox="0 0 56.259 50.15" xml:space="preserve">
<g>
	<g>
		<g>
			<path d="M55.661,19.809L28.993,0.283c-0.514-0.377-1.213-0.377-1.727,0L0.598,19.809c-0.65,0.477-0.793,1.391-0.314,2.043
				c0.477,0.65,1.391,0.792,2.043,0.315L28.129,3.273l25.805,18.894c0.26,0.19,0.562,0.282,0.861,0.282
				c0.451,0,0.895-0.207,1.182-0.598C56.454,21.199,56.313,20.285,55.661,19.809z"/>
		</g>
	</g>
	<g>
		<g>
			<path d="M48.594,22.498c-0.807,0-1.461,0.654-1.461,1.461v23.268H35.44V34.525c0-4.029-3.279-7.309-7.311-7.309
				c-4.03,0-7.309,3.279-7.309,7.309v12.701H9.127V23.96c0-0.808-0.654-1.462-1.463-1.462c-0.807,0-1.461,0.654-1.461,1.462v24.729
				c0,0.808,0.654,1.462,1.461,1.462h14.617c0.77,0,1.398-0.594,1.457-1.348c0.004-0.034,0.006-0.072,0.006-0.114V34.526
				c0-2.419,1.967-4.386,4.385-4.386c2.418,0,4.387,1.967,4.387,4.386v14.162c0,0.042,0.002,0.079,0.006,0.112
				c0.057,0.755,0.686,1.35,1.455,1.35h14.617c0.809,0,1.463-0.654,1.463-1.462V23.96C50.057,23.152,49.401,22.498,48.594,22.498z"
				/>
		</g>
	</g>
</g>
<g>
</g>
<g>
</g>
<g>
</g>
<g>
</g>
<g>
</g>
<g>
</g>
<g>
</g>
<g>
</g>
<g>
</g>
<g>
</g>
<g>
</g>
<g>
</g>
<g>
</g>
<g>
</g>
<g>
</g>
</svg>
