<?xml version="1.0" encoding="utf-8"?>
<!-- Generator: Adobe Illustrator 16.0.4, SVG Export Plug-In . SVG Version: 6.00 Build 0)  -->
<!DOCTYPE svg [
	<!ENTITY ns_flows "http://ns.adobe.com/Flows/1.0/">
	<!ENTITY ns_extend "http://ns.adobe.com/Extensibility/1.0/">
	<!ENTITY ns_ai "http://ns.adobe.com/AdobeIllustrator/10.0/">
	<!ENTITY ns_graphs "http://ns.adobe.com/Graphs/1.0/">
]>
<svg version="1.2" baseProfile="tiny" id="Layer_1" xmlns:x="&ns_extend;" xmlns:i="&ns_ai;" xmlns:graph="&ns_graphs;"
	 xmlns="http://www.w3.org/2000/svg" xmlns:xlink="http://www.w3.org/1999/xlink" xmlns:a="http://ns.adobe.com/AdobeSVGViewerExtensions/3.0/"
	 x="0px" y="0px" width="102px" height="102px" viewBox="0 0 102 102" xml:space="preserve">
<g>
	<g>
		<path fill="#1D1D1B" d="M51,102C22.878,102,0,79.121,0,50.999C0,22.878,22.878,0,51,0s51,22.878,51,50.999
			C102,79.121,79.122,102,51,102z M51,2C23.981,2,2,23.981,2,50.999C2,78.019,23.981,100,51,100c27.019,0,49-21.981,49-49.001
			C100,23.981,78.019,2,51,2z"/>
	</g>
	<g id="heart">
		<g>
			<path d="M50.997,85.918l-4.95-5.085l0,0c0.001,0.002-19.752-19.547-21.865-21.643c-3.775-3.739-5.854-8.709-5.852-13.996
				c0.002-5.281,2.081-10.245,5.853-13.976c2.697-2.673,6.074-4.029,10.037-4.029c5.366,0,11.58,2.625,16.776,7.058
				c5.194-4.433,11.409-7.058,16.777-7.058c3.964,0,7.341,1.356,10.038,4.03c3.771,3.73,5.851,8.694,5.852,13.975
				c0.002,5.286-2.076,10.256-5.852,13.997c-0.264,0.257-21.659,21.441-21.876,21.655L50.997,85.918z M34.221,29.19
				c-3.417,0-6.32,1.161-8.63,3.45c-3.391,3.354-5.259,7.812-5.26,12.555c-0.001,4.748,1.866,9.214,5.26,12.574
				c2.114,2.098,21.877,21.655,21.877,21.655l3.53,3.626l3.519-3.613c0.896-0.887,21.651-21.437,21.894-21.673
				c3.388-3.355,5.256-7.821,5.254-12.569c-0.001-4.743-1.869-9.202-5.259-12.555c-2.311-2.29-5.214-3.451-8.631-3.451
				c-5.12,0-11.142,2.666-16.108,7.131l-0.668,0.601l-0.668-0.601C45.36,31.856,39.339,29.19,34.221,29.19z"/>
		</g>
	</g>
</g>
<g>
</g>
<g>
</g>
<g>
</g>
<g>
</g>
<g>
</g>
<g>
</g>
<g>
</g>
<g>
</g>
<g>
</g>
<g>
</g>
<g>
</g>
<g>
</g>
<g>
</g>
<g>
</g>
<g>
</g>
</svg>
